<mxfile host="app.diagrams.net" modified="2021-03-24T02:10:45.788Z" agent="5.0 (Windows NT 10.0; Win64; x64) AppleWebKit/537.36 (KHTML, like Gecko) Chrome/89.0.4389.90 Safari/537.36" etag="giBp0uDkz31PSlI0c2z8" version="14.4.8" type="github">
  <diagram id="PtlPJyItrx2NpkyrnRAc" name="Страница 1">
    <mxGraphModel dx="1865" dy="588" grid="1" gridSize="10" guides="1" tooltips="1" connect="1" arrows="1" fold="1" page="1" pageScale="1" pageWidth="827" pageHeight="1169" math="0" shadow="0">
      <root>
        <mxCell id="0" />
        <mxCell id="1" parent="0" />
        <mxCell id="PxIPsWFXrBvSrhDCEICw-88" value="" style="rounded=1;whiteSpace=wrap;html=1;labelBackgroundColor=none;strokeColor=#000000;fillColor=none;" parent="1" vertex="1">
          <mxGeometry x="580" y="20" width="300" height="550" as="geometry" />
        </mxCell>
        <mxCell id="PxIPsWFXrBvSrhDCEICw-3" style="edgeStyle=orthogonalEdgeStyle;rounded=0;orthogonalLoop=1;jettySize=auto;html=1;entryX=0.5;entryY=1;entryDx=0;entryDy=0;entryPerimeter=0;" parent="1" source="PxIPsWFXrBvSrhDCEICw-1" target="PxIPsWFXrBvSrhDCEICw-2" edge="1">
          <mxGeometry relative="1" as="geometry" />
        </mxCell>
        <mxCell id="PxIPsWFXrBvSrhDCEICw-1" value="Bo&#39;lim &lt;br&gt;pul so&#39;radi" style="strokeWidth=2;html=1;shape=mxgraph.flowchart.start_1;whiteSpace=wrap;" parent="1" vertex="1">
          <mxGeometry x="60" y="295" width="100" height="65" as="geometry" />
        </mxCell>
        <mxCell id="PxIPsWFXrBvSrhDCEICw-6" style="edgeStyle=orthogonalEdgeStyle;rounded=0;orthogonalLoop=1;jettySize=auto;html=1;entryX=0.5;entryY=1;entryDx=0;entryDy=0;entryPerimeter=0;" parent="1" source="PxIPsWFXrBvSrhDCEICw-2" target="PxIPsWFXrBvSrhDCEICw-5" edge="1">
          <mxGeometry relative="1" as="geometry" />
        </mxCell>
        <mxCell id="PxIPsWFXrBvSrhDCEICw-9" value="Raxbarga" style="edgeLabel;html=1;align=center;verticalAlign=middle;resizable=0;points=[];" parent="PxIPsWFXrBvSrhDCEICw-6" vertex="1" connectable="0">
          <mxGeometry x="0.2421" y="3" relative="1" as="geometry">
            <mxPoint as="offset" />
          </mxGeometry>
        </mxCell>
        <mxCell id="PxIPsWFXrBvSrhDCEICw-7" style="edgeStyle=orthogonalEdgeStyle;rounded=0;orthogonalLoop=1;jettySize=auto;html=1;entryX=0.37;entryY=1.017;entryDx=0;entryDy=0;entryPerimeter=0;" parent="1" source="PxIPsWFXrBvSrhDCEICw-2" target="PxIPsWFXrBvSrhDCEICw-4" edge="1">
          <mxGeometry relative="1" as="geometry" />
        </mxCell>
        <mxCell id="PxIPsWFXrBvSrhDCEICw-10" value="OK" style="edgeLabel;html=1;align=center;verticalAlign=middle;resizable=0;points=[];labelBackgroundColor=#33FF33;" parent="PxIPsWFXrBvSrhDCEICw-7" vertex="1" connectable="0">
          <mxGeometry x="0.4147" y="-4" relative="1" as="geometry">
            <mxPoint x="-1" as="offset" />
          </mxGeometry>
        </mxCell>
        <mxCell id="PxIPsWFXrBvSrhDCEICw-13" style="edgeStyle=orthogonalEdgeStyle;rounded=0;orthogonalLoop=1;jettySize=auto;html=1;entryX=1;entryY=0.5;entryDx=0;entryDy=0;entryPerimeter=0;" parent="1" source="PxIPsWFXrBvSrhDCEICw-2" target="PxIPsWFXrBvSrhDCEICw-1" edge="1">
          <mxGeometry relative="1" as="geometry">
            <Array as="points">
              <mxPoint x="240" y="328" />
            </Array>
          </mxGeometry>
        </mxCell>
        <mxCell id="PxIPsWFXrBvSrhDCEICw-18" value="OTKAZ" style="edgeLabel;html=1;align=center;verticalAlign=middle;resizable=0;points=[];labelBackgroundColor=#FF9999;" parent="PxIPsWFXrBvSrhDCEICw-13" vertex="1" connectable="0">
          <mxGeometry x="-0.3029" y="-2" relative="1" as="geometry">
            <mxPoint as="offset" />
          </mxGeometry>
        </mxCell>
        <mxCell id="PxIPsWFXrBvSrhDCEICw-2" value="Buxgalter" style="strokeWidth=2;html=1;shape=mxgraph.flowchart.start_1;whiteSpace=wrap;" parent="1" vertex="1">
          <mxGeometry x="160" y="170" width="100" height="60" as="geometry" />
        </mxCell>
        <mxCell id="PxIPsWFXrBvSrhDCEICw-15" style="edgeStyle=orthogonalEdgeStyle;rounded=0;orthogonalLoop=1;jettySize=auto;html=1;entryX=1.03;entryY=0.617;entryDx=0;entryDy=0;entryPerimeter=0;" parent="1" source="PxIPsWFXrBvSrhDCEICw-4" target="PxIPsWFXrBvSrhDCEICw-1" edge="1">
          <mxGeometry relative="1" as="geometry">
            <mxPoint x="480" y="320" as="targetPoint" />
            <Array as="points">
              <mxPoint x="470" y="50" />
              <mxPoint x="470" y="335" />
            </Array>
          </mxGeometry>
        </mxCell>
        <mxCell id="PxIPsWFXrBvSrhDCEICw-16" value="OTKAZ" style="edgeLabel;html=1;align=center;verticalAlign=middle;resizable=0;points=[];labelBackgroundColor=#FF9999;" parent="PxIPsWFXrBvSrhDCEICw-15" vertex="1" connectable="0">
          <mxGeometry x="-0.3432" y="-4" relative="1" as="geometry">
            <mxPoint as="offset" />
          </mxGeometry>
        </mxCell>
        <mxCell id="PxIPsWFXrBvSrhDCEICw-4" value="Kassa" style="strokeWidth=2;html=1;shape=mxgraph.flowchart.start_1;whiteSpace=wrap;" parent="1" vertex="1">
          <mxGeometry x="350" y="20" width="100" height="60" as="geometry" />
        </mxCell>
        <mxCell id="PxIPsWFXrBvSrhDCEICw-8" style="edgeStyle=orthogonalEdgeStyle;rounded=0;orthogonalLoop=1;jettySize=auto;html=1;entryX=0;entryY=0.5;entryDx=0;entryDy=0;entryPerimeter=0;" parent="1" source="PxIPsWFXrBvSrhDCEICw-5" target="PxIPsWFXrBvSrhDCEICw-4" edge="1">
          <mxGeometry relative="1" as="geometry" />
        </mxCell>
        <mxCell id="PxIPsWFXrBvSrhDCEICw-11" value="OK" style="edgeLabel;html=1;align=center;verticalAlign=middle;resizable=0;points=[];labelBackgroundColor=#00FF00;" parent="PxIPsWFXrBvSrhDCEICw-8" vertex="1" connectable="0">
          <mxGeometry x="-0.2762" y="2" relative="1" as="geometry">
            <mxPoint x="24" as="offset" />
          </mxGeometry>
        </mxCell>
        <mxCell id="PxIPsWFXrBvSrhDCEICw-12" style="edgeStyle=orthogonalEdgeStyle;rounded=0;orthogonalLoop=1;jettySize=auto;html=1;entryX=0;entryY=0.5;entryDx=0;entryDy=0;entryPerimeter=0;" parent="1" source="PxIPsWFXrBvSrhDCEICw-5" target="PxIPsWFXrBvSrhDCEICw-1" edge="1">
          <mxGeometry relative="1" as="geometry">
            <mxPoint x="50" y="328" as="targetPoint" />
            <Array as="points">
              <mxPoint x="10" y="50" />
              <mxPoint x="10" y="328" />
            </Array>
          </mxGeometry>
        </mxCell>
        <mxCell id="PxIPsWFXrBvSrhDCEICw-17" value="OTKAZ" style="edgeLabel;html=1;align=center;verticalAlign=middle;resizable=0;points=[];labelBackgroundColor=#FF9999;" parent="PxIPsWFXrBvSrhDCEICw-12" vertex="1" connectable="0">
          <mxGeometry x="0.0535" y="3" relative="1" as="geometry">
            <mxPoint as="offset" />
          </mxGeometry>
        </mxCell>
        <mxCell id="PxIPsWFXrBvSrhDCEICw-5" value="Raxbar" style="strokeWidth=2;html=1;shape=mxgraph.flowchart.start_1;whiteSpace=wrap;" parent="1" vertex="1">
          <mxGeometry x="40" y="20" width="100" height="60" as="geometry" />
        </mxCell>
        <mxCell id="PxIPsWFXrBvSrhDCEICw-22" value="" style="shape=table;html=1;whiteSpace=wrap;container=1;collapsible=0;childLayout=tableLayout;rounded=0;align=left;verticalAlign=top;strokeColor=#c0c0c0;labelBackgroundColor=#FF9999;" parent="1" vertex="1">
          <mxGeometry x="10" y="430" width="460" height="200" as="geometry" />
        </mxCell>
        <mxCell id="PxIPsWFXrBvSrhDCEICw-23" value="" style="shape=partialRectangle;html=1;whiteSpace=wrap;collapsible=0;dropTarget=0;pointerEvents=0;fillColor=none;top=0;left=0;bottom=0;right=0;points=[[0,0.5],[1,0.5]];portConstraint=eastwest;" parent="PxIPsWFXrBvSrhDCEICw-22" vertex="1">
          <mxGeometry y="40" width="460" height="32" as="geometry" />
        </mxCell>
        <mxCell id="PxIPsWFXrBvSrhDCEICw-24" value="id" style="shape=partialRectangle;html=1;whiteSpace=wrap;connectable=0;overflow=hidden;fillColor=none;top=0;left=0;bottom=0;right=0;" parent="PxIPsWFXrBvSrhDCEICw-23" vertex="1">
          <mxGeometry width="77" height="32" as="geometry" />
        </mxCell>
        <mxCell id="PxIPsWFXrBvSrhDCEICw-25" value="sana" style="shape=partialRectangle;html=1;whiteSpace=wrap;connectable=0;overflow=hidden;fillColor=none;top=0;left=0;bottom=0;right=0;" parent="PxIPsWFXrBvSrhDCEICw-23" vertex="1">
          <mxGeometry x="77" width="76" height="32" as="geometry" />
        </mxCell>
        <mxCell id="PxIPsWFXrBvSrhDCEICw-26" value="kim so&#39;radi" style="shape=partialRectangle;html=1;whiteSpace=wrap;connectable=0;overflow=hidden;fillColor=none;top=0;left=0;bottom=0;right=0;" parent="PxIPsWFXrBvSrhDCEICw-23" vertex="1">
          <mxGeometry x="153" width="77" height="32" as="geometry" />
        </mxCell>
        <mxCell id="PxIPsWFXrBvSrhDCEICw-27" value="summa" style="shape=partialRectangle;html=1;whiteSpace=wrap;connectable=0;overflow=hidden;fillColor=none;top=0;left=0;bottom=0;right=0;" parent="PxIPsWFXrBvSrhDCEICw-23" vertex="1">
          <mxGeometry x="230" width="77" height="32" as="geometry" />
        </mxCell>
        <mxCell id="PxIPsWFXrBvSrhDCEICw-28" value="status" style="shape=partialRectangle;html=1;whiteSpace=wrap;connectable=0;overflow=hidden;fillColor=none;top=0;left=0;bottom=0;right=0;" parent="PxIPsWFXrBvSrhDCEICw-23" vertex="1">
          <mxGeometry x="307" width="76" height="32" as="geometry" />
        </mxCell>
        <mxCell id="PxIPsWFXrBvSrhDCEICw-29" value="notes" style="shape=partialRectangle;html=1;whiteSpace=wrap;connectable=0;overflow=hidden;fillColor=none;top=0;left=0;bottom=0;right=0;" parent="PxIPsWFXrBvSrhDCEICw-23" vertex="1">
          <mxGeometry x="383" width="77" height="32" as="geometry" />
        </mxCell>
        <mxCell id="PxIPsWFXrBvSrhDCEICw-30" value="" style="shape=partialRectangle;html=1;whiteSpace=wrap;collapsible=0;dropTarget=0;pointerEvents=0;fillColor=none;top=0;left=0;bottom=0;right=0;points=[[0,0.5],[1,0.5]];portConstraint=eastwest;" parent="PxIPsWFXrBvSrhDCEICw-22" vertex="1">
          <mxGeometry y="72" width="460" height="32" as="geometry" />
        </mxCell>
        <mxCell id="PxIPsWFXrBvSrhDCEICw-31" value="1" style="shape=partialRectangle;html=1;whiteSpace=wrap;connectable=0;overflow=hidden;fillColor=none;top=0;left=0;bottom=0;right=0;" parent="PxIPsWFXrBvSrhDCEICw-30" vertex="1">
          <mxGeometry width="77" height="32" as="geometry" />
        </mxCell>
        <mxCell id="PxIPsWFXrBvSrhDCEICw-32" value="10.12.21" style="shape=partialRectangle;html=1;whiteSpace=wrap;connectable=0;overflow=hidden;fillColor=none;top=0;left=0;bottom=0;right=0;" parent="PxIPsWFXrBvSrhDCEICw-30" vertex="1">
          <mxGeometry x="77" width="76" height="32" as="geometry" />
        </mxCell>
        <mxCell id="PxIPsWFXrBvSrhDCEICw-33" value="Oshxona" style="shape=partialRectangle;html=1;whiteSpace=wrap;connectable=0;overflow=hidden;fillColor=none;top=0;left=0;bottom=0;right=0;" parent="PxIPsWFXrBvSrhDCEICw-30" vertex="1">
          <mxGeometry x="153" width="77" height="32" as="geometry" />
        </mxCell>
        <mxCell id="PxIPsWFXrBvSrhDCEICw-34" value="5000" style="shape=partialRectangle;html=1;whiteSpace=wrap;connectable=0;overflow=hidden;fillColor=none;top=0;left=0;bottom=0;right=0;" parent="PxIPsWFXrBvSrhDCEICw-30" vertex="1">
          <mxGeometry x="230" width="77" height="32" as="geometry" />
        </mxCell>
        <mxCell id="PxIPsWFXrBvSrhDCEICw-35" value="OK" style="shape=partialRectangle;html=1;whiteSpace=wrap;connectable=0;overflow=hidden;fillColor=none;top=0;left=0;bottom=0;right=0;" parent="PxIPsWFXrBvSrhDCEICw-30" vertex="1">
          <mxGeometry x="307" width="76" height="32" as="geometry" />
        </mxCell>
        <mxCell id="PxIPsWFXrBvSrhDCEICw-36" value="sabzi uchun" style="shape=partialRectangle;html=1;whiteSpace=wrap;connectable=0;overflow=hidden;fillColor=none;top=0;left=0;bottom=0;right=0;" parent="PxIPsWFXrBvSrhDCEICw-30" vertex="1">
          <mxGeometry x="383" width="77" height="32" as="geometry" />
        </mxCell>
        <mxCell id="PxIPsWFXrBvSrhDCEICw-37" value="" style="shape=partialRectangle;html=1;whiteSpace=wrap;collapsible=0;dropTarget=0;pointerEvents=0;fillColor=none;top=0;left=0;bottom=0;right=0;points=[[0,0.5],[1,0.5]];portConstraint=eastwest;" parent="PxIPsWFXrBvSrhDCEICw-22" vertex="1">
          <mxGeometry y="104" width="460" height="32" as="geometry" />
        </mxCell>
        <mxCell id="PxIPsWFXrBvSrhDCEICw-38" value="2" style="shape=partialRectangle;html=1;whiteSpace=wrap;connectable=0;overflow=hidden;fillColor=none;top=0;left=0;bottom=0;right=0;" parent="PxIPsWFXrBvSrhDCEICw-37" vertex="1">
          <mxGeometry width="77" height="32" as="geometry" />
        </mxCell>
        <mxCell id="PxIPsWFXrBvSrhDCEICw-39" value="&lt;span&gt;11.12.21&lt;/span&gt;" style="shape=partialRectangle;html=1;whiteSpace=wrap;connectable=0;overflow=hidden;fillColor=none;top=0;left=0;bottom=0;right=0;" parent="PxIPsWFXrBvSrhDCEICw-37" vertex="1">
          <mxGeometry x="77" width="76" height="32" as="geometry" />
        </mxCell>
        <mxCell id="PxIPsWFXrBvSrhDCEICw-40" value="Ombor" style="shape=partialRectangle;html=1;whiteSpace=wrap;connectable=0;overflow=hidden;fillColor=none;top=0;left=0;bottom=0;right=0;" parent="PxIPsWFXrBvSrhDCEICw-37" vertex="1">
          <mxGeometry x="153" width="77" height="32" as="geometry" />
        </mxCell>
        <mxCell id="PxIPsWFXrBvSrhDCEICw-41" value="4000" style="shape=partialRectangle;html=1;whiteSpace=wrap;connectable=0;overflow=hidden;fillColor=none;top=0;left=0;bottom=0;right=0;" parent="PxIPsWFXrBvSrhDCEICw-37" vertex="1">
          <mxGeometry x="230" width="77" height="32" as="geometry" />
        </mxCell>
        <mxCell id="PxIPsWFXrBvSrhDCEICw-42" value="OTKAZ" style="shape=partialRectangle;html=1;whiteSpace=wrap;connectable=0;overflow=hidden;fillColor=none;top=0;left=0;bottom=0;right=0;" parent="PxIPsWFXrBvSrhDCEICw-37" vertex="1">
          <mxGeometry x="307" width="76" height="32" as="geometry" />
        </mxCell>
        <mxCell id="PxIPsWFXrBvSrhDCEICw-43" value="" style="shape=partialRectangle;html=1;whiteSpace=wrap;connectable=0;overflow=hidden;fillColor=none;top=0;left=0;bottom=0;right=0;" parent="PxIPsWFXrBvSrhDCEICw-37" vertex="1">
          <mxGeometry x="383" width="77" height="32" as="geometry" />
        </mxCell>
        <mxCell id="PxIPsWFXrBvSrhDCEICw-44" value="" style="shape=partialRectangle;html=1;whiteSpace=wrap;collapsible=0;dropTarget=0;pointerEvents=0;fillColor=none;top=0;left=0;bottom=0;right=0;points=[[0,0.5],[1,0.5]];portConstraint=eastwest;" parent="PxIPsWFXrBvSrhDCEICw-22" vertex="1">
          <mxGeometry y="136" width="460" height="32" as="geometry" />
        </mxCell>
        <mxCell id="PxIPsWFXrBvSrhDCEICw-45" value="3" style="shape=partialRectangle;html=1;whiteSpace=wrap;connectable=0;overflow=hidden;fillColor=none;top=0;left=0;bottom=0;right=0;" parent="PxIPsWFXrBvSrhDCEICw-44" vertex="1">
          <mxGeometry width="77" height="32" as="geometry" />
        </mxCell>
        <mxCell id="PxIPsWFXrBvSrhDCEICw-46" value="&lt;span&gt;12.12.21&lt;/span&gt;" style="shape=partialRectangle;html=1;whiteSpace=wrap;connectable=0;overflow=hidden;fillColor=none;top=0;left=0;bottom=0;right=0;" parent="PxIPsWFXrBvSrhDCEICw-44" vertex="1">
          <mxGeometry x="77" width="76" height="32" as="geometry" />
        </mxCell>
        <mxCell id="PxIPsWFXrBvSrhDCEICw-47" value="Qurilish" style="shape=partialRectangle;html=1;whiteSpace=wrap;connectable=0;overflow=hidden;fillColor=none;top=0;left=0;bottom=0;right=0;" parent="PxIPsWFXrBvSrhDCEICw-44" vertex="1">
          <mxGeometry x="153" width="77" height="32" as="geometry" />
        </mxCell>
        <mxCell id="PxIPsWFXrBvSrhDCEICw-48" value="6000" style="shape=partialRectangle;html=1;whiteSpace=wrap;connectable=0;overflow=hidden;fillColor=none;top=0;left=0;bottom=0;right=0;" parent="PxIPsWFXrBvSrhDCEICw-44" vertex="1">
          <mxGeometry x="230" width="77" height="32" as="geometry" />
        </mxCell>
        <mxCell id="PxIPsWFXrBvSrhDCEICw-49" value="Raxbarda" style="shape=partialRectangle;html=1;whiteSpace=wrap;connectable=0;overflow=hidden;fillColor=none;top=0;left=0;bottom=0;right=0;" parent="PxIPsWFXrBvSrhDCEICw-44" vertex="1">
          <mxGeometry x="307" width="76" height="32" as="geometry" />
        </mxCell>
        <mxCell id="PxIPsWFXrBvSrhDCEICw-50" value="" style="shape=partialRectangle;html=1;whiteSpace=wrap;connectable=0;overflow=hidden;fillColor=none;top=0;left=0;bottom=0;right=0;" parent="PxIPsWFXrBvSrhDCEICw-44" vertex="1">
          <mxGeometry x="383" width="77" height="32" as="geometry" />
        </mxCell>
        <mxCell id="PxIPsWFXrBvSrhDCEICw-51" value="" style="shape=partialRectangle;html=1;whiteSpace=wrap;collapsible=0;dropTarget=0;pointerEvents=0;fillColor=none;top=0;left=0;bottom=0;right=0;points=[[0,0.5],[1,0.5]];portConstraint=eastwest;" parent="PxIPsWFXrBvSrhDCEICw-22" vertex="1">
          <mxGeometry y="168" width="460" height="32" as="geometry" />
        </mxCell>
        <mxCell id="PxIPsWFXrBvSrhDCEICw-52" value="4" style="shape=partialRectangle;html=1;whiteSpace=wrap;connectable=0;overflow=hidden;fillColor=none;top=0;left=0;bottom=0;right=0;" parent="PxIPsWFXrBvSrhDCEICw-51" vertex="1">
          <mxGeometry width="77" height="32" as="geometry" />
        </mxCell>
        <mxCell id="PxIPsWFXrBvSrhDCEICw-53" value="&lt;span&gt;13.12.21&lt;/span&gt;" style="shape=partialRectangle;html=1;whiteSpace=wrap;connectable=0;overflow=hidden;fillColor=none;top=0;left=0;bottom=0;right=0;" parent="PxIPsWFXrBvSrhDCEICw-51" vertex="1">
          <mxGeometry x="77" width="76" height="32" as="geometry" />
        </mxCell>
        <mxCell id="PxIPsWFXrBvSrhDCEICw-54" value="Anvarjon" style="shape=partialRectangle;html=1;whiteSpace=wrap;connectable=0;overflow=hidden;fillColor=none;top=0;left=0;bottom=0;right=0;" parent="PxIPsWFXrBvSrhDCEICw-51" vertex="1">
          <mxGeometry x="153" width="77" height="32" as="geometry" />
        </mxCell>
        <mxCell id="PxIPsWFXrBvSrhDCEICw-55" value="2000" style="shape=partialRectangle;html=1;whiteSpace=wrap;connectable=0;overflow=hidden;fillColor=none;top=0;left=0;bottom=0;right=0;" parent="PxIPsWFXrBvSrhDCEICw-51" vertex="1">
          <mxGeometry x="230" width="77" height="32" as="geometry" />
        </mxCell>
        <mxCell id="PxIPsWFXrBvSrhDCEICw-56" value="OK" style="shape=partialRectangle;html=1;whiteSpace=wrap;connectable=0;overflow=hidden;fillColor=none;top=0;left=0;bottom=0;right=0;" parent="PxIPsWFXrBvSrhDCEICw-51" vertex="1">
          <mxGeometry x="307" width="76" height="32" as="geometry" />
        </mxCell>
        <mxCell id="PxIPsWFXrBvSrhDCEICw-57" value="Oylik&amp;nbsp;" style="shape=partialRectangle;html=1;whiteSpace=wrap;connectable=0;overflow=hidden;fillColor=none;top=0;left=0;bottom=0;right=0;" parent="PxIPsWFXrBvSrhDCEICw-51" vertex="1">
          <mxGeometry x="383" width="77" height="32" as="geometry" />
        </mxCell>
        <mxCell id="PxIPsWFXrBvSrhDCEICw-70" style="edgeStyle=orthogonalEdgeStyle;rounded=0;orthogonalLoop=1;jettySize=auto;html=1;" parent="1" source="PxIPsWFXrBvSrhDCEICw-67" target="PxIPsWFXrBvSrhDCEICw-69" edge="1">
          <mxGeometry relative="1" as="geometry" />
        </mxCell>
        <mxCell id="PxIPsWFXrBvSrhDCEICw-67" value="START" style="rounded=1;html=1;shadow=0;dashed=0;whiteSpace=wrap;fontSize=10;fillColor=#666666;align=center;strokeColor=#4D4D4D;fontColor=#ffffff;labelBackgroundColor=none;" parent="1" vertex="1">
          <mxGeometry x="15" y="737.56" width="105.5" height="16.88" as="geometry" />
        </mxCell>
        <mxCell id="PxIPsWFXrBvSrhDCEICw-74" style="edgeStyle=orthogonalEdgeStyle;rounded=0;orthogonalLoop=1;jettySize=auto;html=1;entryX=0.2;entryY=0.556;entryDx=0;entryDy=0;entryPerimeter=0;" parent="1" source="PxIPsWFXrBvSrhDCEICw-69" target="PxIPsWFXrBvSrhDCEICw-73" edge="1">
          <mxGeometry relative="1" as="geometry" />
        </mxCell>
        <mxCell id="PxIPsWFXrBvSrhDCEICw-69" value="PUL SO&quot;RASH" style="rounded=1;html=1;shadow=0;dashed=0;whiteSpace=wrap;fontSize=10;fillColor=#666666;align=center;strokeColor=#4D4D4D;fontColor=#ffffff;labelBackgroundColor=none;" parent="1" vertex="1">
          <mxGeometry x="195" y="737.56" width="100" height="16.88" as="geometry" />
        </mxCell>
        <mxCell id="PxIPsWFXrBvSrhDCEICw-79" value="" style="edgeStyle=orthogonalEdgeStyle;rounded=0;orthogonalLoop=1;jettySize=auto;html=1;" parent="1" source="PxIPsWFXrBvSrhDCEICw-71" target="PxIPsWFXrBvSrhDCEICw-76" edge="1">
          <mxGeometry relative="1" as="geometry" />
        </mxCell>
        <mxCell id="PxIPsWFXrBvSrhDCEICw-71" value="SUMMANI YOZISH" style="html=1;shadow=0;dashed=0;shape=mxgraph.bootstrap.rrect;rSize=5;strokeColor=#CED4DA;html=1;whiteSpace=wrap;fillColor=#FFFFFF;fontColor=#7D868C;align=left;spacing=15;spacingLeft=40;fontSize=14;labelBackgroundColor=none;" parent="1" vertex="1">
          <mxGeometry x="335" y="730" width="130" height="32" as="geometry" />
        </mxCell>
        <mxCell id="PxIPsWFXrBvSrhDCEICw-72" value="" style="html=1;shadow=0;dashed=0;shape=mxgraph.bootstrap.leftButton;strokeColor=inherit;gradientColor=inherit;fontColor=inherit;fillColor=#E9ECEF;rSize=5;perimeter=none;whiteSpace=wrap;resizeHeight=1;fontSize=14;" parent="PxIPsWFXrBvSrhDCEICw-71" vertex="1">
          <mxGeometry width="6.5" height="32" as="geometry" />
        </mxCell>
        <mxCell id="PxIPsWFXrBvSrhDCEICw-73" value="" style="html=1;shadow=0;dashed=0;shape=mxgraph.bootstrap.radioButton2;labelPosition=right;verticalLabelPosition=middle;align=left;verticalAlign=middle;gradientColor=#DEDEDE;fillColor=#EDEDED;strokeColor=#A6A6A6;checked=0;spacing=5;checkedFill=#0085FC;checkedStroke=#ffffff;" parent="PxIPsWFXrBvSrhDCEICw-72" vertex="1">
          <mxGeometry x="0.5" y="0.5" width="10" height="10" relative="1" as="geometry">
            <mxPoint x="-5" y="-5" as="offset" />
          </mxGeometry>
        </mxCell>
        <mxCell id="PxIPsWFXrBvSrhDCEICw-75" value="YUBORISH" style="rounded=1;html=1;shadow=0;dashed=0;whiteSpace=wrap;fontSize=10;fillColor=#666666;align=center;strokeColor=#4D4D4D;fontColor=#ffffff;labelBackgroundColor=none;" parent="1" vertex="1">
          <mxGeometry x="685" y="737.56" width="100" height="16.88" as="geometry" />
        </mxCell>
        <mxCell id="PxIPsWFXrBvSrhDCEICw-80" value="" style="edgeStyle=orthogonalEdgeStyle;rounded=0;orthogonalLoop=1;jettySize=auto;html=1;" parent="1" source="PxIPsWFXrBvSrhDCEICw-76" target="PxIPsWFXrBvSrhDCEICw-75" edge="1">
          <mxGeometry relative="1" as="geometry" />
        </mxCell>
        <mxCell id="PxIPsWFXrBvSrhDCEICw-76" value="IZOH" style="html=1;shadow=0;dashed=0;shape=mxgraph.bootstrap.rrect;rSize=5;strokeColor=#CED4DA;html=1;whiteSpace=wrap;fillColor=#FFFFFF;fontColor=#7D868C;align=left;spacing=15;spacingLeft=40;fontSize=14;labelBackgroundColor=none;" parent="1" vertex="1">
          <mxGeometry x="515" y="730" width="100" height="32" as="geometry" />
        </mxCell>
        <mxCell id="PxIPsWFXrBvSrhDCEICw-77" value="" style="html=1;shadow=0;dashed=0;shape=mxgraph.bootstrap.leftButton;strokeColor=inherit;gradientColor=inherit;fontColor=inherit;fillColor=#E9ECEF;rSize=5;perimeter=none;whiteSpace=wrap;resizeHeight=1;fontSize=14;" parent="PxIPsWFXrBvSrhDCEICw-76" vertex="1">
          <mxGeometry width="5" height="32" as="geometry" />
        </mxCell>
        <mxCell id="PxIPsWFXrBvSrhDCEICw-78" value="" style="html=1;shadow=0;dashed=0;shape=mxgraph.bootstrap.radioButton2;labelPosition=right;verticalLabelPosition=middle;align=left;verticalAlign=middle;gradientColor=#DEDEDE;fillColor=#EDEDED;strokeColor=#A6A6A6;checked=0;spacing=5;checkedFill=#0085FC;checkedStroke=#ffffff;" parent="PxIPsWFXrBvSrhDCEICw-77" vertex="1">
          <mxGeometry x="0.5" y="0.5" width="10" height="10" relative="1" as="geometry">
            <mxPoint x="-5" y="-5" as="offset" />
          </mxGeometry>
        </mxCell>
        <mxCell id="PxIPsWFXrBvSrhDCEICw-81" value="&lt;h1&gt;250.000&lt;/h1&gt;&lt;p&gt;Muxammad&lt;/p&gt;&lt;p&gt;Oshxonaga kerak&lt;/p&gt;&lt;p&gt;&lt;br&gt;&lt;/p&gt;" style="text;html=1;fillColor=none;spacing=5;spacingTop=-20;whiteSpace=wrap;overflow=hidden;rounded=0;labelBackgroundColor=none;strokeColor=#000000;" parent="1" vertex="1">
          <mxGeometry x="595" y="50" width="280" height="120" as="geometry" />
        </mxCell>
        <mxCell id="PxIPsWFXrBvSrhDCEICw-82" value="KASSAGA" style="rounded=1;html=1;shadow=0;dashed=0;whiteSpace=wrap;fontSize=10;fillColor=#d5e8d4;align=center;strokeColor=#82b366;labelBackgroundColor=none;gradientColor=#97d077;" parent="1" vertex="1">
          <mxGeometry x="599.5" y="150" width="105.5" height="16.88" as="geometry" />
        </mxCell>
        <mxCell id="PxIPsWFXrBvSrhDCEICw-83" value="RAXBARGA" style="rounded=1;html=1;shadow=0;dashed=0;whiteSpace=wrap;fontSize=10;fillColor=#fff2cc;align=center;strokeColor=#d6b656;labelBackgroundColor=none;gradientColor=#ffd966;" parent="1" vertex="1">
          <mxGeometry x="720" y="150" width="75" height="16.88" as="geometry" />
        </mxCell>
        <mxCell id="PxIPsWFXrBvSrhDCEICw-84" value="OTKAZ" style="rounded=1;html=1;shadow=0;dashed=0;whiteSpace=wrap;fontSize=10;fillColor=#f8cecc;align=center;strokeColor=#b85450;labelBackgroundColor=none;gradientColor=#ea6b66;" parent="1" vertex="1">
          <mxGeometry x="810" y="150" width="65" height="16.88" as="geometry" />
        </mxCell>
        <mxCell id="PxIPsWFXrBvSrhDCEICw-89" value="BUXGALTER" style="text;html=1;align=center;verticalAlign=middle;resizable=0;points=[];autosize=1;" parent="1" vertex="1">
          <mxGeometry x="675" width="90" height="20" as="geometry" />
        </mxCell>
        <mxCell id="PxIPsWFXrBvSrhDCEICw-91" value="&lt;h1&gt;100.000&lt;/h1&gt;&lt;p&gt;Diyober&lt;/p&gt;&lt;p&gt;Yul kira&lt;/p&gt;&lt;p&gt;&lt;br&gt;&lt;/p&gt;" style="text;html=1;fillColor=none;spacing=5;spacingTop=-20;whiteSpace=wrap;overflow=hidden;rounded=0;labelBackgroundColor=none;strokeColor=#000000;" parent="1" vertex="1">
          <mxGeometry x="595" y="200" width="280" height="120" as="geometry" />
        </mxCell>
        <mxCell id="PxIPsWFXrBvSrhDCEICw-92" value="KASSAGA" style="rounded=1;html=1;shadow=0;dashed=0;whiteSpace=wrap;fontSize=10;fillColor=#d5e8d4;align=center;strokeColor=#82b366;labelBackgroundColor=none;gradientColor=#97d077;" parent="1" vertex="1">
          <mxGeometry x="599.5" y="300" width="105.5" height="16.88" as="geometry" />
        </mxCell>
        <mxCell id="PxIPsWFXrBvSrhDCEICw-93" value="RAXBARGA" style="rounded=1;html=1;shadow=0;dashed=0;whiteSpace=wrap;fontSize=10;fillColor=#fff2cc;align=center;strokeColor=#d6b656;labelBackgroundColor=none;gradientColor=#ffd966;" parent="1" vertex="1">
          <mxGeometry x="720" y="300" width="75" height="16.88" as="geometry" />
        </mxCell>
        <mxCell id="PxIPsWFXrBvSrhDCEICw-94" value="OTKAZ" style="rounded=1;html=1;shadow=0;dashed=0;whiteSpace=wrap;fontSize=10;fillColor=#f8cecc;align=center;strokeColor=#b85450;labelBackgroundColor=none;gradientColor=#ea6b66;" parent="1" vertex="1">
          <mxGeometry x="810" y="300" width="65" height="16.88" as="geometry" />
        </mxCell>
        <mxCell id="PxIPsWFXrBvSrhDCEICw-95" value="" style="rounded=1;whiteSpace=wrap;html=1;labelBackgroundColor=none;strokeColor=#000000;fillColor=none;" parent="1" vertex="1">
          <mxGeometry x="1266" y="30" width="300" height="550" as="geometry" />
        </mxCell>
        <mxCell id="PxIPsWFXrBvSrhDCEICw-96" value="&lt;h1&gt;250.000&lt;/h1&gt;&lt;p&gt;Muxammad&lt;/p&gt;&lt;p&gt;Oshxonaga kerak&lt;/p&gt;&lt;p&gt;&lt;br&gt;&lt;/p&gt;" style="text;html=1;fillColor=none;spacing=5;spacingTop=-20;whiteSpace=wrap;overflow=hidden;rounded=0;labelBackgroundColor=none;strokeColor=#000000;" parent="1" vertex="1">
          <mxGeometry x="1281" y="60" width="280" height="120" as="geometry" />
        </mxCell>
        <mxCell id="PxIPsWFXrBvSrhDCEICw-97" value="BERILDI" style="rounded=1;html=1;shadow=0;dashed=0;whiteSpace=wrap;fontSize=10;fillColor=#d5e8d4;align=center;strokeColor=#82b366;labelBackgroundColor=none;gradientColor=#97d077;" parent="1" vertex="1">
          <mxGeometry x="1285.5" y="160" width="105.5" height="16.88" as="geometry" />
        </mxCell>
        <mxCell id="PxIPsWFXrBvSrhDCEICw-99" value="OTKAZ" style="rounded=1;html=1;shadow=0;dashed=0;whiteSpace=wrap;fontSize=10;fillColor=#f8cecc;align=center;strokeColor=#b85450;labelBackgroundColor=none;gradientColor=#ea6b66;" parent="1" vertex="1">
          <mxGeometry x="1496" y="160" width="65" height="16.88" as="geometry" />
        </mxCell>
        <mxCell id="PxIPsWFXrBvSrhDCEICw-100" value="KASSIR" style="text;html=1;align=center;verticalAlign=middle;resizable=0;points=[];autosize=1;" parent="1" vertex="1">
          <mxGeometry x="1376" y="10" width="60" height="20" as="geometry" />
        </mxCell>
        <mxCell id="PxIPsWFXrBvSrhDCEICw-101" value="&lt;h1&gt;100.000&lt;/h1&gt;&lt;p&gt;Diyober&lt;/p&gt;&lt;p&gt;Yul kira&lt;/p&gt;&lt;p&gt;&lt;br&gt;&lt;/p&gt;" style="text;html=1;fillColor=none;spacing=5;spacingTop=-20;whiteSpace=wrap;overflow=hidden;rounded=0;labelBackgroundColor=none;strokeColor=#000000;" parent="1" vertex="1">
          <mxGeometry x="1281" y="210" width="280" height="120" as="geometry" />
        </mxCell>
        <mxCell id="PxIPsWFXrBvSrhDCEICw-102" value="BERILDI" style="rounded=1;html=1;shadow=0;dashed=0;whiteSpace=wrap;fontSize=10;fillColor=#d5e8d4;align=center;strokeColor=#82b366;labelBackgroundColor=none;gradientColor=#97d077;" parent="1" vertex="1">
          <mxGeometry x="1285.5" y="310" width="105.5" height="16.88" as="geometry" />
        </mxCell>
        <mxCell id="PxIPsWFXrBvSrhDCEICw-104" value="OTKAZ" style="rounded=1;html=1;shadow=0;dashed=0;whiteSpace=wrap;fontSize=10;fillColor=#f8cecc;align=center;strokeColor=#b85450;labelBackgroundColor=none;gradientColor=#ea6b66;" parent="1" vertex="1">
          <mxGeometry x="1496" y="310" width="65" height="16.88" as="geometry" />
        </mxCell>
        <mxCell id="PxIPsWFXrBvSrhDCEICw-105" value="" style="rounded=1;whiteSpace=wrap;html=1;labelBackgroundColor=none;strokeColor=#000000;fillColor=none;" parent="1" vertex="1">
          <mxGeometry x="916" y="30" width="300" height="550" as="geometry" />
        </mxCell>
        <mxCell id="PxIPsWFXrBvSrhDCEICw-106" value="&lt;h1&gt;250.000&lt;/h1&gt;&lt;p&gt;Muxammad&lt;/p&gt;&lt;p&gt;Oshxonaga kerak&lt;/p&gt;&lt;p&gt;&lt;br&gt;&lt;/p&gt;" style="text;html=1;fillColor=none;spacing=5;spacingTop=-20;whiteSpace=wrap;overflow=hidden;rounded=0;labelBackgroundColor=none;strokeColor=#000000;" parent="1" vertex="1">
          <mxGeometry x="931" y="60" width="280" height="120" as="geometry" />
        </mxCell>
        <mxCell id="PxIPsWFXrBvSrhDCEICw-107" value="KASSAGA" style="rounded=1;html=1;shadow=0;dashed=0;whiteSpace=wrap;fontSize=10;fillColor=#d5e8d4;align=center;strokeColor=#82b366;labelBackgroundColor=none;gradientColor=#97d077;" parent="1" vertex="1">
          <mxGeometry x="935.5" y="160" width="105.5" height="16.88" as="geometry" />
        </mxCell>
        <mxCell id="PxIPsWFXrBvSrhDCEICw-109" value="OTKAZ" style="rounded=1;html=1;shadow=0;dashed=0;whiteSpace=wrap;fontSize=10;fillColor=#f8cecc;align=center;strokeColor=#b85450;labelBackgroundColor=none;gradientColor=#ea6b66;" parent="1" vertex="1">
          <mxGeometry x="1146" y="160" width="65" height="16.88" as="geometry" />
        </mxCell>
        <mxCell id="PxIPsWFXrBvSrhDCEICw-110" value="RAXBAR" style="text;html=1;align=center;verticalAlign=middle;resizable=0;points=[];autosize=1;" parent="1" vertex="1">
          <mxGeometry x="1026" y="10" width="60" height="20" as="geometry" />
        </mxCell>
        <mxCell id="PxIPsWFXrBvSrhDCEICw-111" value="&lt;h1&gt;100.000&lt;/h1&gt;&lt;p&gt;Diyober&lt;/p&gt;&lt;p&gt;Yul kira&lt;/p&gt;&lt;p&gt;&lt;br&gt;&lt;/p&gt;" style="text;html=1;fillColor=none;spacing=5;spacingTop=-20;whiteSpace=wrap;overflow=hidden;rounded=0;labelBackgroundColor=none;strokeColor=#000000;" parent="1" vertex="1">
          <mxGeometry x="931" y="210" width="280" height="120" as="geometry" />
        </mxCell>
        <mxCell id="PxIPsWFXrBvSrhDCEICw-112" value="KASSAGA" style="rounded=1;html=1;shadow=0;dashed=0;whiteSpace=wrap;fontSize=10;fillColor=#d5e8d4;align=center;strokeColor=#82b366;labelBackgroundColor=none;gradientColor=#97d077;" parent="1" vertex="1">
          <mxGeometry x="935.5" y="310" width="105.5" height="16.88" as="geometry" />
        </mxCell>
        <mxCell id="PxIPsWFXrBvSrhDCEICw-114" value="OTKAZ" style="rounded=1;html=1;shadow=0;dashed=0;whiteSpace=wrap;fontSize=10;fillColor=#f8cecc;align=center;strokeColor=#b85450;labelBackgroundColor=none;gradientColor=#ea6b66;" parent="1" vertex="1">
          <mxGeometry x="1146" y="310" width="65" height="16.88" as="geometry" />
        </mxCell>
        <mxCell id="PxIPsWFXrBvSrhDCEICw-115" value="SO&#39;ROVLARIM" style="rounded=1;html=1;shadow=0;dashed=0;whiteSpace=wrap;fontSize=10;fillColor=#666666;align=center;strokeColor=#4D4D4D;fontColor=#ffffff;labelBackgroundColor=none;" parent="1" vertex="1">
          <mxGeometry x="195" y="830" width="100" height="16.88" as="geometry" />
        </mxCell>
        <mxCell id="PxIPsWFXrBvSrhDCEICw-116" value="" style="shape=table;html=1;whiteSpace=wrap;startSize=0;container=1;collapsible=0;childLayout=tableLayout;" parent="1" vertex="1">
          <mxGeometry x="360" y="830" width="205" height="280" as="geometry" />
        </mxCell>
        <mxCell id="PxIPsWFXrBvSrhDCEICw-117" value="" style="shape=partialRectangle;html=1;whiteSpace=wrap;collapsible=0;dropTarget=0;pointerEvents=0;fillColor=none;top=0;left=0;bottom=0;right=0;points=[[0,0.5],[1,0.5]];portConstraint=eastwest;" parent="PxIPsWFXrBvSrhDCEICw-116" vertex="1">
          <mxGeometry width="205" height="40" as="geometry" />
        </mxCell>
        <mxCell id="PxIPsWFXrBvSrhDCEICw-118" value="ID" style="shape=partialRectangle;html=1;whiteSpace=wrap;connectable=0;overflow=hidden;fillColor=none;top=0;left=0;bottom=0;right=0;" parent="PxIPsWFXrBvSrhDCEICw-117" vertex="1">
          <mxGeometry width="75" height="40" as="geometry" />
        </mxCell>
        <mxCell id="PxIPsWFXrBvSrhDCEICw-119" value="TEXT" style="shape=partialRectangle;html=1;whiteSpace=wrap;connectable=0;overflow=hidden;fillColor=none;top=0;left=0;bottom=0;right=0;" parent="PxIPsWFXrBvSrhDCEICw-117" vertex="1">
          <mxGeometry x="75" width="130" height="40" as="geometry" />
        </mxCell>
        <mxCell id="PxIPsWFXrBvSrhDCEICw-120" value="" style="shape=partialRectangle;html=1;whiteSpace=wrap;collapsible=0;dropTarget=0;pointerEvents=0;fillColor=none;top=0;left=0;bottom=0;right=0;points=[[0,0.5],[1,0.5]];portConstraint=eastwest;" parent="PxIPsWFXrBvSrhDCEICw-116" vertex="1">
          <mxGeometry y="40" width="205" height="40" as="geometry" />
        </mxCell>
        <mxCell id="PxIPsWFXrBvSrhDCEICw-121" value="1" style="shape=partialRectangle;html=1;whiteSpace=wrap;connectable=0;overflow=hidden;fillColor=none;top=0;left=0;bottom=0;right=0;" parent="PxIPsWFXrBvSrhDCEICw-120" vertex="1">
          <mxGeometry width="75" height="40" as="geometry" />
        </mxCell>
        <mxCell id="PxIPsWFXrBvSrhDCEICw-122" value="YANGI" style="shape=partialRectangle;html=1;whiteSpace=wrap;connectable=0;overflow=hidden;fillColor=#fff2cc;top=0;left=0;bottom=0;right=0;gradientColor=#ffd966;strokeColor=#d6b656;" parent="PxIPsWFXrBvSrhDCEICw-120" vertex="1">
          <mxGeometry x="75" width="130" height="40" as="geometry" />
        </mxCell>
        <mxCell id="PxIPsWFXrBvSrhDCEICw-123" value="" style="shape=partialRectangle;html=1;whiteSpace=wrap;collapsible=0;dropTarget=0;pointerEvents=0;fillColor=none;top=0;left=0;bottom=0;right=0;points=[[0,0.5],[1,0.5]];portConstraint=eastwest;" parent="PxIPsWFXrBvSrhDCEICw-116" vertex="1">
          <mxGeometry y="80" width="205" height="40" as="geometry" />
        </mxCell>
        <mxCell id="PxIPsWFXrBvSrhDCEICw-124" value="2" style="shape=partialRectangle;html=1;whiteSpace=wrap;connectable=0;overflow=hidden;fillColor=none;top=0;left=0;bottom=0;right=0;" parent="PxIPsWFXrBvSrhDCEICw-123" vertex="1">
          <mxGeometry width="75" height="40" as="geometry" />
        </mxCell>
        <mxCell id="PxIPsWFXrBvSrhDCEICw-125" value="BUXGALTERDA" style="shape=partialRectangle;html=1;whiteSpace=wrap;connectable=0;overflow=hidden;fillColor=#fff2cc;top=0;left=0;bottom=0;right=0;gradientColor=#ffd966;strokeColor=#d6b656;" parent="PxIPsWFXrBvSrhDCEICw-123" vertex="1">
          <mxGeometry x="75" width="130" height="40" as="geometry" />
        </mxCell>
        <mxCell id="PxIPsWFXrBvSrhDCEICw-126" value="" style="shape=partialRectangle;html=1;whiteSpace=wrap;collapsible=0;dropTarget=0;pointerEvents=0;fillColor=none;top=0;left=0;bottom=0;right=0;points=[[0,0.5],[1,0.5]];portConstraint=eastwest;" parent="PxIPsWFXrBvSrhDCEICw-116" vertex="1">
          <mxGeometry y="120" width="205" height="40" as="geometry" />
        </mxCell>
        <mxCell id="PxIPsWFXrBvSrhDCEICw-127" value="3" style="shape=partialRectangle;html=1;whiteSpace=wrap;connectable=0;overflow=hidden;fillColor=none;top=0;left=0;bottom=0;right=0;" parent="PxIPsWFXrBvSrhDCEICw-126" vertex="1">
          <mxGeometry width="75" height="40" as="geometry" />
        </mxCell>
        <mxCell id="PxIPsWFXrBvSrhDCEICw-128" value="RAXBARDA" style="shape=partialRectangle;html=1;whiteSpace=wrap;connectable=0;overflow=hidden;fillColor=#fff2cc;top=0;left=0;bottom=0;right=0;gradientColor=#ffd966;strokeColor=#d6b656;" parent="PxIPsWFXrBvSrhDCEICw-126" vertex="1">
          <mxGeometry x="75" width="130" height="40" as="geometry" />
        </mxCell>
        <mxCell id="PxIPsWFXrBvSrhDCEICw-129" value="" style="shape=partialRectangle;html=1;whiteSpace=wrap;collapsible=0;dropTarget=0;pointerEvents=0;fillColor=#d5e8d4;top=0;left=0;bottom=0;right=0;points=[[0,0.5],[1,0.5]];portConstraint=eastwest;gradientColor=#97d077;strokeColor=#82b366;" parent="PxIPsWFXrBvSrhDCEICw-116" vertex="1">
          <mxGeometry y="160" width="205" height="40" as="geometry" />
        </mxCell>
        <mxCell id="PxIPsWFXrBvSrhDCEICw-130" value="4" style="shape=partialRectangle;html=1;whiteSpace=wrap;connectable=0;overflow=hidden;top=0;left=0;bottom=0;right=0;" parent="PxIPsWFXrBvSrhDCEICw-129" vertex="1">
          <mxGeometry width="75" height="40" as="geometry" />
        </mxCell>
        <mxCell id="PxIPsWFXrBvSrhDCEICw-131" value="KASSADA" style="shape=partialRectangle;html=1;whiteSpace=wrap;connectable=0;overflow=hidden;fillColor=#d5e8d4;top=0;left=0;bottom=0;right=0;gradientColor=#97d077;strokeColor=#82b366;" parent="PxIPsWFXrBvSrhDCEICw-129" vertex="1">
          <mxGeometry x="75" width="130" height="40" as="geometry" />
        </mxCell>
        <mxCell id="PxIPsWFXrBvSrhDCEICw-132" style="shape=partialRectangle;html=1;whiteSpace=wrap;collapsible=0;dropTarget=0;pointerEvents=0;fillColor=none;top=0;left=0;bottom=0;right=0;points=[[0,0.5],[1,0.5]];portConstraint=eastwest;" parent="PxIPsWFXrBvSrhDCEICw-116" vertex="1">
          <mxGeometry y="200" width="205" height="40" as="geometry" />
        </mxCell>
        <mxCell id="PxIPsWFXrBvSrhDCEICw-133" value="5" style="shape=partialRectangle;html=1;whiteSpace=wrap;connectable=0;overflow=hidden;fillColor=none;top=0;left=0;bottom=0;right=0;" parent="PxIPsWFXrBvSrhDCEICw-132" vertex="1">
          <mxGeometry width="75" height="40" as="geometry" />
        </mxCell>
        <mxCell id="PxIPsWFXrBvSrhDCEICw-134" value="BERILDI" style="shape=partialRectangle;html=1;whiteSpace=wrap;connectable=0;overflow=hidden;fillColor=#f8cecc;top=0;left=0;bottom=0;right=0;gradientColor=#ea6b66;strokeColor=#b85450;" parent="PxIPsWFXrBvSrhDCEICw-132" vertex="1">
          <mxGeometry x="75" width="130" height="40" as="geometry" />
        </mxCell>
        <mxCell id="PxIPsWFXrBvSrhDCEICw-135" style="shape=partialRectangle;html=1;whiteSpace=wrap;collapsible=0;dropTarget=0;pointerEvents=0;fillColor=none;top=0;left=0;bottom=0;right=0;points=[[0,0.5],[1,0.5]];portConstraint=eastwest;" parent="PxIPsWFXrBvSrhDCEICw-116" vertex="1">
          <mxGeometry y="240" width="205" height="40" as="geometry" />
        </mxCell>
        <mxCell id="PxIPsWFXrBvSrhDCEICw-136" value="6" style="shape=partialRectangle;html=1;whiteSpace=wrap;connectable=0;overflow=hidden;fillColor=none;top=0;left=0;bottom=0;right=0;" parent="PxIPsWFXrBvSrhDCEICw-135" vertex="1">
          <mxGeometry width="75" height="40" as="geometry" />
        </mxCell>
        <mxCell id="PxIPsWFXrBvSrhDCEICw-137" value="&lt;span&gt;OTKAZ&lt;/span&gt;" style="shape=partialRectangle;html=1;whiteSpace=wrap;connectable=0;overflow=hidden;fillColor=#f8cecc;top=0;left=0;bottom=0;right=0;gradientColor=#ea6b66;strokeColor=#b85450;" parent="PxIPsWFXrBvSrhDCEICw-135" vertex="1">
          <mxGeometry x="75" width="130" height="40" as="geometry" />
        </mxCell>
        <UserObject label="Status: 1" placeholders="1" name="Variable" id="rpFFo2OdjjU3Nr2_HluH-3">
          <mxCell style="text;html=1;fillColor=none;align=center;verticalAlign=middle;whiteSpace=wrap;overflow=hidden;dashed=1;strokeColor=#000000;" vertex="1" parent="1">
            <mxGeometry x="70" y="370" width="80" height="20" as="geometry" />
          </mxCell>
        </UserObject>
        <UserObject label="Status: 2" placeholders="1" name="Variable" id="rpFFo2OdjjU3Nr2_HluH-4">
          <mxCell style="text;html=1;fillColor=none;align=center;verticalAlign=middle;whiteSpace=wrap;overflow=hidden;dashed=1;strokeColor=#000000;" vertex="1" parent="1">
            <mxGeometry x="170" y="140" width="80" height="20" as="geometry" />
          </mxCell>
        </UserObject>
        <UserObject label="Status: 3" placeholders="1" name="Variable" id="rpFFo2OdjjU3Nr2_HluH-5">
          <mxCell style="text;html=1;fillColor=none;align=center;verticalAlign=middle;whiteSpace=wrap;overflow=hidden;dashed=1;strokeColor=#000000;" vertex="1" parent="1">
            <mxGeometry x="140" y="60" width="80" height="20" as="geometry" />
          </mxCell>
        </UserObject>
        <UserObject label="Status: 4" placeholders="1" name="Variable" id="rpFFo2OdjjU3Nr2_HluH-6">
          <mxCell style="text;html=1;fillColor=none;align=center;verticalAlign=middle;whiteSpace=wrap;overflow=hidden;dashed=1;strokeColor=#000000;" vertex="1" parent="1">
            <mxGeometry x="450" y="20" width="80" height="20" as="geometry" />
          </mxCell>
        </UserObject>
        <UserObject label="Status: 4" placeholders="1" name="Variable" id="rpFFo2OdjjU3Nr2_HluH-8">
          <mxCell style="text;html=1;fillColor=none;align=center;verticalAlign=middle;whiteSpace=wrap;overflow=hidden;dashed=1;strokeColor=#000000;" vertex="1" parent="1">
            <mxGeometry x="618.38" y="176.88" width="67.75" height="20" as="geometry" />
          </mxCell>
        </UserObject>
        <UserObject label="Status: 3" placeholders="1" name="Variable" id="rpFFo2OdjjU3Nr2_HluH-9">
          <mxCell style="text;html=1;fillColor=none;align=center;verticalAlign=middle;whiteSpace=wrap;overflow=hidden;dashed=1;strokeColor=#000000;" vertex="1" parent="1">
            <mxGeometry x="725" y="176.88" width="65" height="20" as="geometry" />
          </mxCell>
        </UserObject>
        <UserObject label="Status: 6" placeholders="1" name="Variable" id="rpFFo2OdjjU3Nr2_HluH-10">
          <mxCell style="text;html=1;fillColor=none;align=center;verticalAlign=middle;whiteSpace=wrap;overflow=hidden;dashed=1;strokeColor=#000000;" vertex="1" parent="1">
            <mxGeometry x="802.5" y="176.88" width="67.5" height="20" as="geometry" />
          </mxCell>
        </UserObject>
        <UserObject label="Status: 4" placeholders="1" name="Variable" id="rpFFo2OdjjU3Nr2_HluH-11">
          <mxCell style="text;html=1;fillColor=none;align=center;verticalAlign=middle;whiteSpace=wrap;overflow=hidden;dashed=1;strokeColor=#000000;" vertex="1" parent="1">
            <mxGeometry x="604.1899999999999" y="326.88" width="67.75" height="20" as="geometry" />
          </mxCell>
        </UserObject>
        <UserObject label="Status: 3" placeholders="1" name="Variable" id="rpFFo2OdjjU3Nr2_HluH-12">
          <mxCell style="text;html=1;fillColor=none;align=center;verticalAlign=middle;whiteSpace=wrap;overflow=hidden;dashed=1;strokeColor=#000000;" vertex="1" parent="1">
            <mxGeometry x="710.81" y="326.88" width="65" height="20" as="geometry" />
          </mxCell>
        </UserObject>
        <UserObject label="Status: 6" placeholders="1" name="Variable" id="rpFFo2OdjjU3Nr2_HluH-13">
          <mxCell style="text;html=1;fillColor=none;align=center;verticalAlign=middle;whiteSpace=wrap;overflow=hidden;dashed=1;strokeColor=#000000;" vertex="1" parent="1">
            <mxGeometry x="788.31" y="326.88" width="67.5" height="20" as="geometry" />
          </mxCell>
        </UserObject>
        <UserObject label="Status: 4" placeholders="1" name="Variable" id="rpFFo2OdjjU3Nr2_HluH-14">
          <mxCell style="text;html=1;fillColor=none;align=center;verticalAlign=middle;whiteSpace=wrap;overflow=hidden;dashed=1;strokeColor=#000000;" vertex="1" parent="1">
            <mxGeometry x="628.38" y="186.88" width="67.75" height="20" as="geometry" />
          </mxCell>
        </UserObject>
        <UserObject label="Status: 6" placeholders="1" name="Variable" id="rpFFo2OdjjU3Nr2_HluH-15">
          <mxCell style="text;html=1;fillColor=none;align=center;verticalAlign=middle;whiteSpace=wrap;overflow=hidden;dashed=1;strokeColor=#000000;" vertex="1" parent="1">
            <mxGeometry x="812.5" y="186.88" width="67.5" height="20" as="geometry" />
          </mxCell>
        </UserObject>
        <UserObject label="Status: 4" placeholders="1" name="Variable" id="rpFFo2OdjjU3Nr2_HluH-16">
          <mxCell style="text;html=1;fillColor=none;align=center;verticalAlign=middle;whiteSpace=wrap;overflow=hidden;dashed=1;strokeColor=#000000;" vertex="1" parent="1">
            <mxGeometry x="950" y="180" width="67.75" height="20" as="geometry" />
          </mxCell>
        </UserObject>
        <UserObject label="Status: 6" placeholders="1" name="Variable" id="rpFFo2OdjjU3Nr2_HluH-17">
          <mxCell style="text;html=1;fillColor=none;align=center;verticalAlign=middle;whiteSpace=wrap;overflow=hidden;dashed=1;strokeColor=#000000;" vertex="1" parent="1">
            <mxGeometry x="1134.12" y="180" width="67.5" height="20" as="geometry" />
          </mxCell>
        </UserObject>
        <UserObject label="Status: 4" placeholders="1" name="Variable" id="rpFFo2OdjjU3Nr2_HluH-18">
          <mxCell style="text;html=1;fillColor=none;align=center;verticalAlign=middle;whiteSpace=wrap;overflow=hidden;dashed=1;strokeColor=#000000;" vertex="1" parent="1">
            <mxGeometry x="950" y="340" width="67.75" height="20" as="geometry" />
          </mxCell>
        </UserObject>
        <UserObject label="Status: 6" placeholders="1" name="Variable" id="rpFFo2OdjjU3Nr2_HluH-19">
          <mxCell style="text;html=1;fillColor=none;align=center;verticalAlign=middle;whiteSpace=wrap;overflow=hidden;dashed=1;strokeColor=#000000;" vertex="1" parent="1">
            <mxGeometry x="1134.12" y="340" width="67.5" height="20" as="geometry" />
          </mxCell>
        </UserObject>
        <UserObject label="Status: 5" placeholders="1" name="Variable" id="rpFFo2OdjjU3Nr2_HluH-20">
          <mxCell style="text;html=1;fillColor=none;align=center;verticalAlign=middle;whiteSpace=wrap;overflow=hidden;dashed=1;strokeColor=#000000;" vertex="1" parent="1">
            <mxGeometry x="1300" y="180" width="67.75" height="20" as="geometry" />
          </mxCell>
        </UserObject>
        <UserObject label="Status: 6" placeholders="1" name="Variable" id="rpFFo2OdjjU3Nr2_HluH-21">
          <mxCell style="text;html=1;fillColor=none;align=center;verticalAlign=middle;whiteSpace=wrap;overflow=hidden;dashed=1;strokeColor=#000000;" vertex="1" parent="1">
            <mxGeometry x="1484.12" y="180" width="67.5" height="20" as="geometry" />
          </mxCell>
        </UserObject>
        <UserObject label="Status: 5" placeholders="1" name="Variable" id="rpFFo2OdjjU3Nr2_HluH-22">
          <mxCell style="text;html=1;fillColor=none;align=center;verticalAlign=middle;whiteSpace=wrap;overflow=hidden;dashed=1;strokeColor=#000000;" vertex="1" parent="1">
            <mxGeometry x="1295.19" y="346.88" width="67.75" height="20" as="geometry" />
          </mxCell>
        </UserObject>
        <UserObject label="Status: 6" placeholders="1" name="Variable" id="rpFFo2OdjjU3Nr2_HluH-23">
          <mxCell style="text;html=1;fillColor=none;align=center;verticalAlign=middle;whiteSpace=wrap;overflow=hidden;dashed=1;strokeColor=#000000;" vertex="1" parent="1">
            <mxGeometry x="1479.31" y="346.88" width="67.5" height="20" as="geometry" />
          </mxCell>
        </UserObject>
        <UserObject label="Status: 1" placeholders="1" name="Variable" id="rpFFo2OdjjU3Nr2_HluH-24">
          <mxCell style="text;html=1;fillColor=none;align=center;verticalAlign=middle;whiteSpace=wrap;overflow=hidden;dashed=1;strokeColor=#000000;" vertex="1" parent="1">
            <mxGeometry x="696.1199999999999" y="770" width="67.75" height="20" as="geometry" />
          </mxCell>
        </UserObject>
      </root>
    </mxGraphModel>
  </diagram>
</mxfile>
